<?xml version="1.0" encoding="UTF-8"?>
<svg width="18px" height="18px" viewBox="0 0 18 18" version="1.1" xmlns="http://www.w3.org/2000/svg" xmlns:xlink="http://www.w3.org/1999/xlink">
    <title>4</title>
    <defs>
        <linearGradient x1="50%" y1="0%" x2="50%" y2="100%" id="linearGradient-1">
            <stop stop-color="#CCE7F5" offset="0%"></stop>
            <stop stop-color="#A3CADE" offset="100%"></stop>
        </linearGradient>
    </defs>
    <g id="页面-1" stroke="none" stroke-width="1" fill="none" fill-rule="evenodd">
        <g id="1" transform="translate(-1154.000000, -420.000000)" fill-rule="nonzero">
            <g transform="translate(40.000000, 335.000000)" id="4">
                <g transform="translate(1113.999998, 85.000000)">
                    <rect id="矩形" fill="#000000" opacity="0" x="0" y="0" width="18" height="18"></rect>
                    <path d="M6.90815039,5.56250977 L5.53447266,5.56250977 L5.53447266,6.93622266 L6.90815039,6.93622266 L6.90815039,5.56249219 L6.90815039,5.56250977 Z M6.90815039,8.31079687 L5.53447266,8.31079687 L5.53447266,9.68465039 L6.90815039,9.68465039 L6.90815039,8.31079687 Z M6.90815039,2.81513672 C6.15241406,2.81513672 5.53447266,3.43295508 5.53447266,4.18886719 L6.90815039,4.18886719 L6.90815039,2.81513672 Z M9.65671875,11.0591895 L8.28304102,11.0591895 L8.28304102,12.4328848 L9.65671875,12.4328848 L9.65671875,11.0591895 Z M13.7785254,2.81513672 L13.7785254,4.18886719 L15.1522031,4.18886719 C15.1522031,3.4329375 14.5335234,2.81513672 13.7785254,2.81513672 M9.65670117,2.81513672 L8.28302344,2.81513672 L8.28302344,4.18886719 L9.65670117,4.18886719 L9.65670117,2.81513672 Z M6.90815039,12.4328848 L6.90815039,11.0591895 L5.53447266,11.0591895 C5.53447266,11.8139238 6.15241406,12.4328848 6.90815039,12.4328848 M13.7785254,9.68466797 L15.1522031,9.68466797 L15.1522031,8.31081445 L13.7785254,8.31081445 L13.7785254,9.68466797 Z M13.7785254,6.93710156 L15.1522031,6.93710156 L15.1522031,5.56340625 L13.7785254,5.56340625 L13.7785254,6.93710156 Z M13.7785254,12.4329023 C14.533541,12.4329023 15.1522031,11.8139414 15.1522031,11.059207 L13.7785254,11.059207 L13.7785254,12.4329023 Z M4.16105859,5.56250977 L2.78634375,5.56250977 L2.78634375,13.8065625 C2.78634375,14.5631777 3.40414453,15.1811191 4.16105859,15.1811191 L12.4048125,15.1811191 L12.4048125,13.8065625 L4.16105859,13.8065625 L4.16105859,5.56250977 Z M11.0302383,4.18883203 L12.4039512,4.18883203 L12.4039512,2.81513672 L11.0302559,2.81513672 L11.0302559,4.18886719 L11.0302383,4.18883203 Z M11.0302383,12.4328848 L12.4039512,12.4328848 L12.4039512,11.0591895 L11.0302559,11.0591895 L11.0302559,12.4328848 L11.0302383,12.4328848 Z" id="形状" fill="url(#linearGradient-1)"></path>
                </g>
            </g>
        </g>
    </g>
</svg>