<?xml version="1.0" encoding="UTF-8"?>
<svg width="18px" height="18px" viewBox="0 0 18 18" version="1.1" xmlns="http://www.w3.org/2000/svg" xmlns:xlink="http://www.w3.org/1999/xlink">
    <title>5</title>
    <defs>
        <linearGradient x1="50%" y1="0%" x2="50%" y2="100%" id="linearGradient-1">
            <stop stop-color="#CCE7F5" offset="0%"></stop>
            <stop stop-color="#A3CADE" offset="100%"></stop>
        </linearGradient>
    </defs>
    <g id="页面-1" stroke="none" stroke-width="1" fill="none" fill-rule="evenodd">
        <g id="1" transform="translate(-1186.000000, -420.000000)" fill-rule="nonzero">
            <g transform="translate(40.000000, 335.000000)" id="5">
                <g transform="translate(1145.999998, 85.000000)">
                    <rect id="矩形" fill="#000000" opacity="0" x="0" y="0" width="18" height="18"></rect>
                    <path d="M16.5058594,14.034375 L13.6863281,11.4380859 C14.2330078,10.4660156 14.5441406,9.34628906 14.5441406,8.15273438 C14.5441406,4.44375 11.5382812,1.43789063 7.82929687,1.43789063 C4.1203125,1.43789063 1.11445313,4.44375 1.11445313,8.15273438 C1.11445313,11.8617188 4.1203125,14.8675781 7.82929687,14.8675781 C9.22148437,14.8675781 10.5152344,14.4439453 11.5875,13.7179688 L14.4070312,16.3142578 C14.6197266,16.509375 14.8886719,16.6060547 15.1558594,16.6060547 C15.4546875,16.6060547 15.7517578,16.4865234 15.9697266,16.2492188 L16.5708984,15.5970703 C16.9839844,15.1488281 16.9558594,14.4474609 16.5058594,14.034375 L16.5058594,14.034375 Z M1.80175781,8.15097656 C1.80175781,4.82871094 4.50527344,2.12519531 7.82753906,2.12519531 C11.1498047,2.12519531 13.8533203,4.82871094 13.8533203,8.15097656 C13.8533203,11.4732422 11.1498047,14.1767578 7.82753906,14.1767578 C4.50527344,14.1767578 1.80175781,11.475 1.80175781,8.15097656 Z M5.89921875,9.58886719 L5.89921875,6.74824219 L3.43828125,8.16855469 L5.89921875,9.58886719 Z M9.70664063,6.74824219 L9.70664063,9.58886719 L12.1675781,8.16855469 L9.70664063,6.74824219 Z M7.76601563,3.84257813 L6.34394531,6.30351563 L9.18632812,6.30351563 L7.76601563,3.84257813 Z M7.76601562,12.5015625 L9.18632813,10.040625 L6.34394531,10.040625 L7.76601562,12.5015625 Z" id="形状" fill="url(#linearGradient-1)"></path>
                </g>
            </g>
        </g>
    </g>
</svg>