<?xml version="1.0" encoding="UTF-8"?>
<svg width="46px" height="46px" viewBox="0 0 46 46" version="1.1" xmlns="http://www.w3.org/2000/svg" xmlns:xlink="http://www.w3.org/1999/xlink">
    <title>global</title>
    <defs>
        <path d="M25.875,25.15625 C25.875,24.7592953 25.5532047,24.4375 25.15625,24.4375 L23,24.4375 L23,25.875 L25.15625,25.875 C25.5532047,25.875 25.875,25.5532047 25.875,25.15625 Z M25.875,27.3125 L23,27.3125 L23,28.75 L25.875,28.75 C26.2719547,28.75 26.59375,28.4282047 26.59375,28.03125 C26.59375,27.6342953 26.2719547,27.3125 25.875,27.3125 Z M24.4375,19.40625 C20.4679534,19.40625 17.2499742,22.6242034 17.2499742,26.59375 C17.2461938,28.0062556 17.6641431,29.3877406 18.4503125,30.56125 C18.7116733,30.9637802 19.0152693,31.3372515 19.3559375,31.6753125 C19.3559375,31.6753125 19.478125,31.8046875 19.564375,31.8765625 C21.613131,33.7727203 24.5744947,34.3110938 27.1595391,33.257357 C29.7445834,32.2036202 31.4856721,29.7483949 31.625,26.9603125 L31.625,26.59375 C31.625,22.6242034 28.4070466,19.40625 24.4375,19.40625 Z M25.875,30.1875 L25.875,30.90625 C25.875,31.3032047 25.5532047,31.625 25.15625,31.625 C24.7592953,31.625 24.4375,31.3032047 24.4375,30.90625 L24.4375,30.1875 L23.71875,30.1875 L23.71875,30.90625 C23.71875,31.3032047 23.3969547,31.625 23,31.625 C22.6030453,31.625 22.28125,31.3032047 22.28125,30.90625 L22.28125,30.1875 L21.5625,30.1875 C21.1655453,30.1875 20.84375,29.8657047 20.84375,29.46875 C20.84375,29.0717953 21.1655453,28.75 21.5625,28.75 L21.5625,24.4375 C21.1655453,24.4375 20.84375,24.1157047 20.84375,23.71875 C20.84375,23.3217953 21.1655453,23 21.5625,23 L22.28125,23 L22.28125,22.28125 C22.28125,21.8842953 22.6030453,21.5625 23,21.5625 C23.3969547,21.5625 23.71875,21.8842953 23.71875,22.28125 L23.71875,23 L24.4375,23 L24.4375,22.28125 C24.4375,21.8842953 24.7592953,21.5625 25.15625,21.5625 C25.5532047,21.5625 25.875,21.8842953 25.875,22.28125 L25.875,23.129375 C26.73443,23.4332253 27.3099381,24.2446918 27.3125,25.15625 C27.3116664,25.5257901 27.2177332,25.8891631 27.039375,26.2128125 C27.848539,26.7284226 28.2196646,27.7166674 27.9499237,28.6374497 C27.6801828,29.5582319 26.8344758,30.1900086 25.875,30.1875 Z M7.61875,23.848125 L8.754375,24.0709375 C11.1341279,24.4763744 13.5331142,24.7594548 15.941875,24.9190625 C16.743929,20.8667505 20.3066107,17.9521031 24.4375,17.96875 C25.9527617,17.9680242 27.4410176,18.3698532 28.75,19.133125 C30.4088534,17.2643634 31.9614041,15.3038783 33.4003125,13.2609375 L33.680625,12.8584375 L34.054375,12.305 C34.1334375,12.1828125 34.2125,12.0534375 34.2915625,11.9384375 C33.7324335,11.3623264 33.126619,10.8334407 32.4803125,10.3571875 C32.0871915,10.0556003 31.6768064,9.77721045 31.25125,9.5234375 L30.633125,9.1640625 C30.3384375,8.99875 30.0365625,8.840625 29.7275,8.7040625 C27.6267346,7.70150031 25.3277303,7.18324186 23,7.18747397 C16.1695201,7.18747397 10.1110976,11.5732828 7.978125,18.0621875 C7.84875,18.4575 7.7265625,18.86 7.633125,19.2696875 L7.633125,19.3128125 C7.51728128,19.7869326 7.42611705,20.2667443 7.36,20.7503125 C7.24682457,21.4948969 7.18916564,22.2468654 7.1875,23 L7.1875,23.761875 L7.61875,23.848125 Z M7.6403125,26.7590625 C7.94991076,28.0377988 8.42087645,29.2719705 9.041875,30.431875 C9.1928125,30.7121875 9.3509375,30.9925 9.5234375,31.265625 C9.6959375,31.53875 9.7534375,31.639375 9.875625,31.8190625 C9.9978125,31.99875 10.191875,32.271875 10.3571875,32.4946875 C10.6303125,32.86125 10.9178125,33.2134375 11.2196875,33.5440625 C11.62309,33.9953738 12.0526858,34.4225697 12.50625,34.8234375 C12.8871875,34.600625 13.3040625,34.341875 13.7496875,34.0471875 L14.6984375,33.4075 C15.55375,32.8109375 16.430625,32.156875 17.321875,31.4596875 C16.5622658,30.3672421 16.0698761,29.1116484 15.884375,27.7940625 C15.8313574,27.3962291 15.8073357,26.9950674 15.8125,26.59375 L15.8125,26.3565625 C13.2609375,26.1696875 10.8315625,25.8821875 8.7471875,25.515625 L7.6115625,25.2928125 L7.3384375,25.2353125 C6.785,25.113125 6.2890625,24.998125 5.8434375,24.8759375 C2.875,24.06375 2.15625,23.273125 2.15625,23 C2.15625,22.870625 2.32875,22.6046875 2.875,22.28125 C3.81720949,21.7636011 4.82554145,21.3767111 5.8721875,21.13125 C5.92739133,20.6123355 6.00895505,20.0965649 6.1165625,19.5859375 C3.119375,20.311875 1.4375,21.203125 0.89125,22.28125 C0.778537153,22.5041216 0.71946653,22.7502492 0.71875,23 C0.71875,24.4375 2.4796875,25.53 6.095,26.4140625 C6.483125,26.5146875 6.8928125,26.608125 7.3240625,26.694375 L7.6403125,26.7590625 Z M39.905,19.5859375 C40.0126075,20.0965649 40.0941712,20.6123355 40.149375,21.13125 C41.1885946,21.3785674 42.1895563,21.7654125 43.125,22.28125 C43.6496875,22.6046875 43.84375,22.870625 43.84375,23 C43.84375,23.273125 43.125,24.06375 40.149375,24.86875 C39.70375,24.9909375 39.2078125,25.1059375 38.654375,25.228125 L38.3740625,25.285625 C38.0146875,25.3646875 37.6553125,25.4365625 37.2528125,25.5084375 C36.5915625,25.6234375 35.90875,25.73125 35.204375,25.831875 C34.485625,25.9253125 33.766875,26.0115625 33.048125,26.0834375 L33.048125,26.579375 C33.0494735,26.8939355 33.0326747,27.2083119 32.9978125,27.5209375 C32.6548179,30.6439387 30.6407888,33.3334002 27.7405073,34.5413525 C24.8402257,35.7493048 21.5125223,35.2846474 19.0540625,33.3284375 C18.7592392,33.091041 18.4806955,32.8341085 18.2203125,32.559375 C18.1429215,32.4880726 18.0708539,32.4112005 18.0046875,32.329375 C16.9261609,33.2001088 15.8186601,34.0343302 14.6840625,34.830625 L13.7353125,35.4703125 L13.498125,35.6284375 C13.0689591,35.9077869 12.6327772,36.1762065 12.19,36.4334375 C11.2707138,37.006068 10.276594,37.4487053 9.2359375,37.74875 L8.840625,37.74875 C8.71671337,37.7670457 8.59078663,37.7670457 8.466875,37.74875 C8.44094601,37.7554448 8.41374149,37.7554448 8.3878125,37.74875 L8.3015625,37.74875 L8.2440625,37.705625 C8.13625,37.5978125 8.064375,37.1809375 8.3446875,36.325625 C8.65438962,35.4352493 9.06176974,34.5819205 9.559375,33.78125 C9.22875,33.3715625 8.9125,32.9475 8.625,32.5090625 C7.80373086,33.7496303 7.19183366,35.1166864 6.81375,36.555625 C6.57537438,37.3006135 6.73842694,38.1158763 7.245,38.711875 C7.62084426,39.0702544 8.12800395,39.2575134 8.6465625,39.229375 C9.775,39.229375 11.370625,38.6040625 13.455,37.331875 C13.8,37.1234375 14.17375,36.8934375 14.5403125,36.613125 L14.7990625,36.440625 C19.0945741,39.0538383 24.3768458,39.4684404 29.0274629,37.5574028 C33.6780799,35.6463652 37.1426539,31.637498 38.3596875,26.7590625 L38.66875,26.694375 C39.1071875,26.608125 39.516875,26.5146875 39.905,26.4140625 C43.5203125,25.53 45.28125,24.4375 45.28125,23 C45.2805335,22.7502492 45.2214628,22.5041216 45.10875,22.28125 C44.5984375,21.203125 42.880625,20.311875 39.905,19.5859375 Z M36.9221875,8.208125 L36.9725,8.208125 L37.0228125,8.2440625 C37.1953125,8.4165625 37.2671875,9.358125 36.0165625,11.6653125 C35.7290625,12.1971875 35.3696875,12.8009375 34.93125,13.48375 C34.888125,13.5628125 34.830625,13.641875 34.7803125,13.7209375 L34.12625,14.676875 C33.881875,15.0290625 33.6303125,15.395625 33.364375,15.7478125 C32.3509375,17.091875 31.208125,18.515 29.9359375,19.938125 L29.971875,19.9740625 C30.1167345,20.0840515 30.2536382,20.2041424 30.3815625,20.3334375 L30.6690625,20.6209375 C30.7840625,20.7359375 30.891875,20.858125 30.9996875,20.9803125 L31.3446875,21.4115625 C32.06527,22.3732657 32.5769346,23.474936 32.846875,24.6459375 C34.3921875,24.495 35.8728125,24.29375 37.2528125,24.049375 C37.63375,23.9775 38.0146875,23.905625 38.3740625,23.8265625 L38.798125,23.7403125 L38.798125,23.0215625 C38.8001549,22.2759805 38.7473038,21.5312603 38.64,20.7934375 C38.5738829,20.3098693 38.4827187,19.8300576 38.366875,19.3559375 L38.366875,19.3128125 C38.2734375,18.903125 38.15125,18.500625 38.021875,18.1053125 C37.6481977,16.9634949 37.1441415,15.8685594 36.5196875,14.8421875 C36.4046875,14.6553125 36.2896875,14.4684375 36.1675,14.28875 C36.469375,13.8095833 36.7425,13.3639583 36.986875,12.951875 C38.2734375,10.7021875 38.7621875,9.070625 38.4675,8.0284375 C38.3853038,7.75692044 38.2371433,7.50998632 38.03625,7.3096875 C37.780641,7.05294199 37.4468486,6.88857452 37.0875,6.8425 L36.7209375,6.8425 C36.6228366,6.83540025 36.5243509,6.83540025 36.42625,6.8425 L36.181875,6.8425 C35.9928005,6.86586759 35.8055055,6.90188586 35.62125,6.9503125 C34.412338,7.29743065 33.2582307,7.81278674 32.1928125,8.48125 C32.644919,8.74361119 33.0816719,9.03158012 33.5009375,9.34375 C34.1113162,8.99076423 34.7481161,8.68558086 35.405625,8.4309375 C35.8767711,8.20432226 36.4057699,8.12660205 36.9221875,8.208125 Z" id="path-1"></path>
        <filter x="-1.1%" y="-1.5%" width="102.2%" height="106.2%" filterUnits="objectBoundingBox" id="filter-2">
            <feOffset dx="0" dy="1" in="SourceAlpha" result="shadowOffsetOuter1"></feOffset>
            <feColorMatrix values="0 0 0 0 0   0 0 0 0 0   0 0 0 0 0  0 0 0 0.0805015297 0" type="matrix" in="shadowOffsetOuter1"></feColorMatrix>
        </filter>
        <filter x="-4.5%" y="-6.2%" width="109.0%" height="115.4%" filterUnits="objectBoundingBox" id="filter-3">
            <feGaussianBlur stdDeviation="1.5" in="SourceAlpha" result="shadowBlurInner1"></feGaussianBlur>
            <feOffset dx="0" dy="-1" in="shadowBlurInner1" result="shadowOffsetInner1"></feOffset>
            <feComposite in="shadowOffsetInner1" in2="SourceAlpha" operator="arithmetic" k2="-1" k3="1" result="shadowInnerInner1"></feComposite>
            <feColorMatrix values="0 0 0 0 1   0 0 0 0 1   0 0 0 0 1  0 0 0 0.5 0" type="matrix" in="shadowInnerInner1"></feColorMatrix>
        </filter>
    </defs>
    <g id="页面-1" stroke="none" stroke-width="1" fill="none" fill-rule="evenodd">
        <g id="1" transform="translate(-84.000000, -154.000000)" fill-rule="nonzero">
            <g id="main-goal" transform="translate(40.000000, 125.000000)">
                <g id="global" transform="translate(44.000000, 29.000000)">
                    <rect id="2" fill="#000000" opacity="0" x="0" y="0" width="46" height="46"></rect>
                    <g id="1">
                        <use fill="black" fill-opacity="1" filter="url(#filter-2)" xlink:href="#path-1"></use>
                        <use fill="#FFFFFF" xlink:href="#path-1"></use>
                        <use fill="black" fill-opacity="1" filter="url(#filter-3)" xlink:href="#path-1"></use>
                    </g>
                </g>
            </g>
        </g>
    </g>
</svg>