<?xml version="1.0" encoding="UTF-8"?>
<svg width="51px" height="48px" viewBox="0 0 51 48" version="1.1" xmlns="http://www.w3.org/2000/svg" xmlns:xlink="http://www.w3.org/1999/xlink">
    <title>notification</title>
    <defs>
        <rect id="path-1" x="0" y="0" width="24" height="24"></rect>
        <circle id="path-3" cx="8" cy="8" r="5"></circle>
        <filter x="-110.0%" y="-70.0%" width="320.0%" height="320.0%" filterUnits="objectBoundingBox" id="filter-4">
            <feOffset dx="0" dy="4" in="SourceAlpha" result="shadowOffsetOuter1"></feOffset>
            <feGaussianBlur stdDeviation="3" in="shadowOffsetOuter1" result="shadowBlurOuter1"></feGaussianBlur>
            <feColorMatrix values="0 0 0 0 1   0 0 0 0 0.501960784   0 0 0 0 0.211764706  0 0 0 0.400000006 0" type="matrix" in="shadowBlurOuter1"></feColorMatrix>
        </filter>
    </defs>
    <g id="控件" stroke="none" stroke-width="1" fill="none" fill-rule="evenodd">
        <g id="Top" transform="translate(-1680.000000, -19.000000)">
            <g id="notification" transform="translate(1680.000000, 19.000000)">
                <g id="Group-16">
                    <path d="M24,48 C37.254834,48 48,37.254834 48,24 C48,10.745166 37.254834,0 24,0 C10.745166,0 0,10.745166 0,24 C0,37.254834 10.745166,48 24,48 Z" id="Ellipse-7" fill="#FFFFFF"></path>
                    <g id="basil:notification-on-solid" transform="translate(12.000000, 12.000000)">
                        <mask id="mask-2" fill="white">
                            <use xlink:href="#path-1"></use>
                        </mask>
                        <g id="basil:notification-on-solid-(Background/Mask)"></g>
                        <path d="M6.60178328,2.87297857 C6.58649238,2.6772662 6.49507649,2.49535027 6.34716082,2.36628403 C6.19924514,2.23721778 6.00662179,2.17129058 5.81064224,2.18265547 C5.61466269,2.19402036 5.43095063,2.28177136 5.29894543,2.42707027 L4.00694549,3.90707028 C3.27432722,4.74663717 2.86018296,5.81704068 2.83694543,6.93107033 L2.7799455,9.65006971 C2.77583465,9.84898208 2.85090975,10.0413812 2.98865522,10.1849403 C3.12640069,10.3284994 3.31553306,10.4114594 3.51444542,10.4155703 C3.71335779,10.4196811 3.90575624,10.344606 4.04931533,10.2068605 C4.19287443,10.0691151 4.27583487,9.87998222 4.27994573,9.68106985 L4.33594549,6.96306992 C4.35198888,6.2007975 4.63552052,5.46843034 5.13694572,4.89407039 L6.42894554,3.41307032 C6.55502097,3.26259731 6.61707417,3.06869094 6.60178328,2.87297857 Z" id="Vector" fill="#007AFF" fill-rule="nonzero" mask="url(#mask-2)"></path>
                        <path d="M7.55793405,4.89223671 C8.33933818,4.15839303 9.37104118,3.74992936 10.4430108,3.75 L11.000011,3.75 L11.000011,3 C11.000011,2.7347835 11.105368,2.48042955 11.2929044,2.29289317 C11.4804408,2.1053568 11.7347945,2 12.000011,2 C12.2652275,2 12.5195807,2.1053568 12.7071171,2.29289317 C12.8946535,2.48042955 13.0000105,2.7347835 13.0000105,3 L13.0000105,3.75 L13.5570107,3.75 C14.6289803,3.74992936 15.660684,4.15839303 16.4420881,4.89223671 C17.2234923,5.62608039 17.6958539,6.63013589 17.763011,7.69999981 L17.9840097,11.2340002 C18.068231,12.5814584 18.5206647,13.8799553 19.2920103,14.9879999 C19.4513771,15.2170637 19.5487532,15.483471 19.5746679,15.7613134 C19.6005827,16.0391559 19.5541547,16.3189757 19.4398985,16.5735607 C19.3256423,16.8281457 19.1474467,17.04883 18.9226427,17.2141514 C18.6978387,17.3794728 18.434077,17.4838052 18.1570101,17.5170002 L14.7500105,17.9249992 L14.7500105,19 C14.7500105,19.7293453 14.4602793,20.4288188 13.9445543,20.9445438 C13.4288293,21.4602689 12.7293563,21.75 12.000011,21.75 C11.2706656,21.75 10.5711921,21.4602689 10.0554671,20.9445438 C9.53974211,20.4288188 9.25001097,19.7293453 9.25001097,19 L9.25001097,17.9249992 L5.84301066,17.5160007 C5.56610593,17.482713 5.30251865,17.3783689 5.0778563,17.2131081 C4.85319395,17.0478472 4.6750952,16.8272882 4.56086281,16.5728569 C4.44663042,16.3184256 4.40014795,16.0387733 4.42593172,15.7610693 C4.45171549,15.4833653 4.54888901,15.2170513 4.70801094,14.9879999 C5.47931054,13.8799317 5.93173864,12.5814483 6.01601052,11.2340002 L6.23701072,7.70100021 L6.23701072,7.69999981 C6.30416781,6.63013589 6.77652991,5.62608039 7.55793405,4.89223671 Z M11.1161275,19.8838844 C11.350548,20.1183049 11.6684904,20.25 12.000011,20.25 C12.3315316,20.25 12.6494735,20.1183049 12.883894,19.8838844 C13.1183144,19.649464 13.2500105,19.3315206 13.2500105,19 L13.2500105,18.25 L10.750011,18.25 L10.750011,19 C10.750011,19.3315206 10.881707,19.649464 11.1161275,19.8838844 Z" id="Vector" fill="#007AFF" mask="url(#mask-2)"></path>
                        <path d="M17.3879626,2.8690474 C17.3744608,3.06744868 17.4403049,3.26309058 17.5710185,3.41295493 L18.8630202,4.89295483 C19.3643017,5.46771765 19.6474875,6.2004624 19.6630194,6.96295452 L19.7200186,9.67995501 C19.7220541,9.77844641 19.7434697,9.87557216 19.7830412,9.96578741 C19.8226128,10.0560027 19.8795663,10.1375411 19.9506495,10.2057457 C20.0217327,10.2739503 20.1055538,10.327486 20.1973269,10.3632965 C20.2891,10.399107 20.3870282,10.4164909 20.4855196,10.4144554 C20.5840111,10.4124199 20.6811359,10.3910044 20.7713511,10.3514328 C20.8615663,10.3118612 20.9431043,10.2549087 21.0113089,10.1838255 C21.0795135,10.1127422 21.1330492,10.0289208 21.1688597,9.93714762 C21.2046702,9.84537447 21.2220541,9.74744628 21.2200186,9.64895487 L21.1630194,6.93095493 C21.1397819,5.81692529 20.7256376,4.74652177 19.9930193,3.90695488 L18.7010195,2.4269549 C18.5702457,2.27714308 18.3853275,2.18539994 18.1869262,2.17189816 C17.9885249,2.15839637 17.7928834,2.22424129 17.643019,2.35495487 C17.4932072,2.48572865 17.4014644,2.67064613 17.3879626,2.8690474 Z" id="Vector" fill="#007AFF" fill-rule="nonzero" mask="url(#mask-2)"></path>
                    </g>
                </g>
                <g id="Group-15" transform="translate(32.000000, 0.000000)">
                    <path d="M8,16 C12.418278,16 16,12.418278 16,8 C16,3.581722 12.418278,0 8,0 C3.581722,0 0,3.581722 0,8 C0,12.418278 3.581722,16 8,16 Z" id="Ellipse-8" fill="#FFFFFF"></path>
                    <g id="Ellipse-9">
                        <use fill="black" fill-opacity="1" filter="url(#filter-4)" xlink:href="#path-3"></use>
                        <use fill="#FF8036" fill-rule="evenodd" xlink:href="#path-3"></use>
                    </g>
                </g>
            </g>
        </g>
    </g>
</svg>