<?xml version="1.0" encoding="UTF-8"?>
<svg width="48px" height="48px" viewBox="0 0 48 48" version="1.1" xmlns="http://www.w3.org/2000/svg" xmlns:xlink="http://www.w3.org/1999/xlink">
    <title>Search</title>
    <defs>
        <rect id="path-1" x="0" y="0" width="24" height="24"></rect>
    </defs>
    <g id="控件" stroke="none" stroke-width="1" fill="none" fill-rule="evenodd">
        <g id="Top" transform="translate(-1612.000000, -19.000000)">
            <g id="Group-17" transform="translate(1612.000000, 19.000000)">
                <path d="M24,48 C37.254834,48 48,37.254834 48,24 C48,10.745166 37.254834,0 24,0 C10.745166,0 0,10.745166 0,24 C0,37.254834 10.745166,48 24,48 Z" id="Ellipse-6" fill="#FFFFFF"></path>
                <g id="solar:chat-round-call-bold" transform="translate(12.000000, 12.000000)">
                    <mask id="mask-2" fill="white">
                        <use xlink:href="#path-1"></use>
                    </mask>
                    <g id="solar:chat-round-call-bold-(Background/Mask)"></g>
                    <path d="M12.0000124,22 C10.4000124,22 8.88801229,21.6239994 7.54801226,20.9559994 C7.19403908,20.7730562 6.785418,20.7257577 6.39901257,20.823 L4.17301226,21.4190006 C3.95268361,21.4777918 3.72076672,21.4775924 3.50053942,21.4184227 C3.28031212,21.359253 3.07952343,21.2431953 2.91832721,21.0818977 C2.757131,20.9206002 2.64119901,20.719738 2.58216774,20.4994736 C2.52313648,20.2792091 2.52308291,20.0472913 2.58201253,19.8269997 L3.17701256,17.6009998 C3.27378827,17.2147932 3.22613443,16.8065348 3.0430125,16.4529991 C2.35464448,15.0696629 1.99756469,13.5451419 2,12 C2,6.47700024 6.47701263,2 12.0000124,2 C17.5230122,2 22.0000134,6.47700024 22.0000134,12 C22.0000134,17.5229998 17.5230122,22 12.0000124,22 Z M12.5303421,7.46966982 C12.6709944,7.6103221 12.7500124,7.80108763 12.7500124,8 L12.7500124,16 C12.7500124,16.1989124 12.6709944,16.3896784 12.5303421,16.5303307 C12.3896898,16.6709829 12.1989248,16.75 12.0000124,16.75 C11.8011,16.75 11.610335,16.6709829 11.4696827,16.5303307 C11.3290304,16.3896784 11.2500124,16.1989124 11.2500124,16 L11.2500124,8 C11.2500124,7.80108763 11.3290304,7.6103221 11.4696827,7.46966982 C11.610335,7.32901753 11.8011,7.25 12.0000124,7.25 C12.1989248,7.25 12.3896898,7.32901753 12.5303421,7.46966982 Z M8.5303421,9.4696703 C8.38968982,9.32901801 8.19892476,9.25 8.0000124,9.25 C7.80110003,9.25 7.6103345,9.32901801 7.46968222,9.4696703 C7.32902993,9.61032258 7.2500124,9.80108763 7.2500124,10 L7.2500124,14 C7.2500124,14.1989124 7.32902993,14.3896774 7.46968222,14.5303297 C7.6103345,14.670982 7.80110003,14.75 8.0000124,14.75 C8.19892476,14.75 8.38968982,14.670982 8.5303421,14.5303297 C8.67099439,14.3896774 8.7500124,14.1989124 8.7500124,14 L8.7500124,10 C8.7500124,9.80108763 8.67099439,9.61032258 8.5303421,9.4696703 Z M16.5303431,9.4696703 C16.6709953,9.61032258 16.7500124,9.80108763 16.7500124,10 L16.7500124,14 C16.7500124,14.1989124 16.6709953,14.3896774 16.5303431,14.5303297 C16.3896908,14.670982 16.1989248,14.75 16.0000124,14.75 C15.8011,14.75 15.610335,14.670982 15.4696827,14.5303297 C15.3290304,14.3896774 15.2500124,14.1989124 15.2500124,14 L15.2500124,10 C15.2500124,9.80108763 15.3290304,9.61032258 15.4696827,9.4696703 C15.610335,9.32901801 15.8011,9.25 16.0000124,9.25 C16.1989248,9.25 16.3896908,9.32901801 16.5303431,9.4696703 Z" id="Vector" fill="#007AFF" mask="url(#mask-2)"></path>
                </g>
            </g>
        </g>
    </g>
</svg>