<?xml version="1.0" encoding="UTF-8"?>
<svg width="24px" height="24px" viewBox="0 0 24 24" version="1.1" xmlns="http://www.w3.org/2000/svg" xmlns:xlink="http://www.w3.org/1999/xlink">
    <title>system-uicons:card-view</title>
    <defs>
        <rect id="path-1" x="0" y="0" width="24" height="24"></rect>
    </defs>
    <g id="页面-1" stroke="none" stroke-width="1" fill="none" fill-rule="evenodd">
        <g id="1" transform="translate(-1832.000000, -280.000000)">
            <g id="Group-115" transform="translate(1744.000000, 268.000000)">
                <g id="system-uicons:card-view" transform="translate(88.000000, 12.000000)">
                    <mask id="mask-2" fill="white">
                        <use xlink:href="#path-1"></use>
                    </mask>
                    <g id="system-uicons:card-view-(Background/Mask)"></g>
                    <path d="M15,5 C15.530433,5 16.0391404,5.2107136 16.4142132,5.58578634 C16.7892859,5.96085909 17,6.469567 17,7 L17,17 C17,17.530433 16.7892859,18.0391404 16.4142132,18.4142132 C16.0391404,18.7892859 15.530433,19 15,19 L9,19 C8.469567,19 7.96085909,18.7892859 7.58578634,18.4142132 C7.2107136,18.0391404 7,17.530433 7,17 L7,7 C7,6.469567 7.2107136,5.96085909 7.58578634,5.58578634 C7.96085909,5.2107136 8.469567,5 9,5 L15,5 Z M17,7.5 L17,16.5 M7,7.5 L7,16.5" id="Vector" stroke="#838F99" stroke-width="1.5" stroke-linecap="round" stroke-linejoin="round" stroke-dasharray="0,0" mask="url(#mask-2)"></path>
                    <path d="M5,6 C4.469567,6 3.96085909,6.2107136 3.58578634,6.58578634 C3.2107136,6.96085909 3,7.469567 3,8 L3,16 C3,16.530433 3.2107136,17.0391404 3.58578634,17.4142132 C3.96085909,17.7892859 4.469567,18 5,18" id="Vector" stroke="#838F99" stroke-width="1.5" stroke-linecap="round" stroke-linejoin="round" stroke-dasharray="0,0" mask="url(#mask-2)"></path>
                    <path d="M21,6 C20.469567,6 19.9608591,6.2107136 19.5857863,6.58578634 C19.2107136,6.96085909 19,7.469567 19,8 L19,16 C19,16.530433 19.2107136,17.0391404 19.5857863,17.4142132 C19.9608591,17.7892859 20.469567,18 21,18" id="Vector" stroke="#838F99" stroke-width="1.5" stroke-linecap="round" stroke-linejoin="round" stroke-dasharray="0,0" mask="url(#mask-2)" transform="translate(20.000000, 12.000000) rotate(180.000000) translate(-20.000000, -12.000000) "></path>
                </g>
            </g>
        </g>
    </g>
</svg>