<?xml version="1.0" encoding="UTF-8"?>
<svg width="46px" height="46px" viewBox="0 0 46 46" version="1.1" xmlns="http://www.w3.org/2000/svg" xmlns:xlink="http://www.w3.org/1999/xlink">
    <title>system</title>
    <defs>
        <path d="M42.5494609,37.5514082 L40.2998184,35.9766719 C39.4661133,35.3930469 37.765416,34.9558223 36.4502832,34.9558223 L26.287832,34.9558223 L26.287832,31.3690801 L39.2595176,31.3690801 C39.3583457,31.3690801 39.4392051,31.2882207 39.4392051,31.1893926 L39.4392051,7.03934766 C39.4392051,6.94051953 39.3583457,6.85966016 39.2595176,6.85966016 L7.9360332,6.85966016 C7.83720508,6.85966016 7.7563457,6.94051953 7.7563457,7.03934766 L7.7563457,31.1893926 C7.7563457,31.2882207 7.83720508,31.3690801 7.9360332,31.3690801 L21.5055391,31.3690801 L21.5055391,34.9558223 L9.5497168,34.9558223 C8.23458398,34.9558223 6.53393164,35.3930918 5.70018164,35.9766719 L3.45053906,37.5514082 C2.26410742,38.3819238 2.66269922,39.1403398 4.47412891,39.1403398 L41.5258262,39.1403398 C43.3372559,39.1403398 43.7358926,38.3819238 42.5494609,37.5514082 L42.5494609,37.5514082 Z M19.189502,22.057 C19.1006436,22.2936708 18.8939894,22.4662634 18.6452726,22.5115273 C18.3965558,22.5567912 18.1423455,22.4680712 17.9758027,22.2778809 L14.9753809,18.850791 L13.6244004,20.3948457 C13.4879038,20.5508259 13.2907219,20.6402962 13.0834512,20.6402988 L11.3430879,20.6402988 C10.9461582,20.6402988 10.6243379,20.3184785 10.6243379,19.9215488 C10.6243379,19.5246191 10.9461582,19.2027988 11.3430879,19.2027988 L12.7572734,19.2027988 L14.434252,17.2861621 C14.570707,17.1301978 14.7678392,17.0407199 14.9750706,17.0406854 C15.182302,17.040651 15.3794638,17.1300635 15.5159707,17.2859824 L18.2658633,20.4269199 L20.9845801,13.1827734 C21.0934016,12.8928477 21.3756871,12.7052173 21.6851337,12.7171273 C21.9945804,12.7290374 22.261609,12.9378098 22.3478242,13.2352422 L24.2280293,19.7214219 C24.2300508,19.7284297 24.2319824,19.7354824 24.2337793,19.7425352 L25.0301094,22.8391797 L27.412002,16.7599023 C27.5198999,16.4845579 27.7854277,16.3033979 28.0811582,16.3033613 L28.0856504,16.3033613 C28.3830293,16.3051865 28.6485746,16.4899611 28.7536387,16.768168 L30.3324629,20.9491367 L31.9663164,18.8784629 C32.1026185,18.7057201 32.3105384,18.60493 32.5305801,18.6049336 L35.2546875,18.6049336 C35.6516621,18.6049336 35.9734375,18.9267539 35.9734375,19.3236836 C35.9734375,19.7206133 35.6516621,20.0424336 35.2546875,20.0424336 L32.8789941,20.0424336 L30.6734199,22.8376523 C30.7960609,23.162437 30.6690254,23.528462 30.3715459,23.7074365 C30.0740664,23.8864109 29.6911782,23.8271744 29.4616899,23.566673 C29.2322015,23.3061716 29.2217128,22.9188703 29.4367656,22.6463301 L28.0688496,19.0238301 L25.5571328,25.4344062 C25.4433817,25.7247156 25.155427,25.9085744 24.8442049,25.88961 C24.5329828,25.8706457 24.2694826,25.653184 24.1918223,25.3512109 L22.8443457,20.1111191 L21.5698672,15.7144805 L19.189502,22.057 L19.189502,22.057 Z" id="path-1"></path>
        <filter x="-1.2%" y="-1.5%" width="102.5%" height="106.2%" filterUnits="objectBoundingBox" id="filter-2">
            <feOffset dx="0" dy="1" in="SourceAlpha" result="shadowOffsetOuter1"></feOffset>
            <feColorMatrix values="0 0 0 0 0   0 0 0 0 0   0 0 0 0 0  0 0 0 0.0805015297 0" type="matrix" in="shadowOffsetOuter1"></feColorMatrix>
        </filter>
        <filter x="-4.9%" y="-6.2%" width="109.9%" height="115.5%" filterUnits="objectBoundingBox" id="filter-3">
            <feGaussianBlur stdDeviation="1.5" in="SourceAlpha" result="shadowBlurInner1"></feGaussianBlur>
            <feOffset dx="0" dy="-1" in="shadowBlurInner1" result="shadowOffsetInner1"></feOffset>
            <feComposite in="shadowOffsetInner1" in2="SourceAlpha" operator="arithmetic" k2="-1" k3="1" result="shadowInnerInner1"></feComposite>
            <feColorMatrix values="0 0 0 0 1   0 0 0 0 1   0 0 0 0 1  0 0 0 0.5 0" type="matrix" in="shadowInnerInner1"></feColorMatrix>
        </filter>
    </defs>
    <g id="页面-1" stroke="none" stroke-width="1" fill="none" fill-rule="evenodd">
        <g id="1" transform="translate(-704.000000, -154.000000)" fill-rule="nonzero">
            <g id="main-goal" transform="translate(660.000000, 125.000000)">
                <g id="system" transform="translate(44.000000, 29.000000)">
                    <rect id="矩形" fill="#000000" opacity="0" x="0" y="0" width="46" height="46"></rect>
                    <g id="形状">
                        <use fill="black" fill-opacity="1" filter="url(#filter-2)" xlink:href="#path-1"></use>
                        <use fill="#FFFFFF" xlink:href="#path-1"></use>
                        <use fill="black" fill-opacity="1" filter="url(#filter-3)" xlink:href="#path-1"></use>
                    </g>
                </g>
            </g>
        </g>
    </g>
</svg>