<?xml version="1.0" encoding="UTF-8"?>
<svg width="46px" height="46px" viewBox="0 0 46 46" version="1.1" xmlns="http://www.w3.org/2000/svg" xmlns:xlink="http://www.w3.org/1999/xlink">
    <title>vertex</title>
    <defs>
        <path d="M41.547187,17.9801476 C44.7687175,20.2137421 45.2412086,25.196376 42.5565999,27.8809848 C42.2344468,28.2031378 42.1270624,28.1172304 41.9122937,27.7736004 C40.8384502,26.033974 39.2921156,24.9601304 37.2732898,24.6379774 C36.9511367,24.5950237 36.4786456,24.4232087 36.414215,24.9386536 C36.3497844,25.4111447 36.8007986,25.368191 37.1229517,25.4111447 C39.5927918,25.7332978 41.7190019,27.8809848 42.0841087,30.4152555 C42.4921692,33.2072486 41.1606033,35.8918574 38.8196244,36.9657009 C38.6263326,36.7724091 38.7551938,36.5146866 38.7551938,36.2999179 C38.733717,34.3884765 37.9175959,32.8636187 36.5430762,31.5750065 C36.3283075,31.3817146 36.0705851,31.1669459 35.8128626,31.489099 C35.576617,31.7682983 35.7913857,31.9615901 36.0061544,32.154882 C39.2706387,35.0757363 38.4115639,39.8006477 34.1591436,41.7765198 C31.1953355,43.1510395 27.308022,42.5067334 25.0959044,40.2731389 C24.0864915,39.263726 23.5495697,38.0610213 23.5495697,36.6005941 C23.5710466,34.5173377 23.5710466,32.4555581 23.5495697,30.3723017 C23.5495697,29.8783337 23.678431,29.7924262 24.1509221,29.8783337 C25.8046411,30.1790099 27.0073458,31.3817146 27.4154064,33.0998642 C27.5013139,33.4220173 27.3509758,34.0878003 27.973805,33.9374622 C28.4892499,33.808601 28.2315274,33.2502023 28.14562,32.9065724 C27.6946057,30.823316 26.1267942,29.4058426 23.9361534,29.1051664 C23.6354772,29.0622127 23.5280929,28.9763052 23.5280929,28.675629 L23.5280929,22.1037067 C23.5280929,21.6312156 23.7643384,21.7815537 24.0220609,21.8459843 C25.8690717,22.2969985 27.5227907,21.9748455 28.9402642,20.6647564 C29.0509404,20.5755571 29.151741,20.4747565 29.2409403,20.3640802 C29.4127553,20.1707884 29.4771859,19.9560197 29.2624172,19.741251 C29.0261716,19.5050054 28.8328798,19.6553435 28.6610648,19.8486353 C27.9093744,20.6647564 26.985869,21.1157707 25.8905486,21.2446319 C25.7187336,21.2661088 25.5683955,21.2661088 25.3965806,21.2661088 C23.7213847,21.223155 23.5280929,21.0298632 23.5280929,19.3976211 C23.5280929,16.261998 23.4851391,13.126375 23.5280929,9.99075193 C23.5925235,5.11550239 28.639588,1.7221569 33.1926845,3.46178339 C36.0491082,4.55710377 37.3377204,7.43500437 37.4236279,9.8618907 C37.4451047,10.5061968 37.1014748,10.2484744 36.7793218,10.1625669 C33.6651756,9.23906147 30.4006913,10.3988125 28.6825417,13.0834212 C27.8878975,14.3076028 27.5442676,15.6606457 27.6516519,17.1210728 C27.6731288,17.3143647 27.6946057,17.4861796 27.7590363,17.6794715 C27.8234669,17.8942402 27.973805,17.9801476 28.1885737,17.9371939 C28.3818655,17.8942402 28.467773,17.7868558 28.4892499,17.593564 C28.4892499,17.4432259 28.467773,17.3143647 28.467773,17.1640266 C28.2315274,13.942496 30.5510294,11.0645954 33.7081293,10.6994886 C37.2088592,10.2914281 40.0867598,12.3317308 40.6881121,15.6176919 C41.0102652,17.421749 40.6451584,19.0325143 39.6357455,20.5144183 C39.4639305,20.7506639 39.1632544,21.0298632 39.5283612,21.2875856 C39.9364217,21.566785 40.1082367,21.1587244 40.2800516,20.9224789 C40.9673115,20.0848809 41.3109414,19.075468 41.547187,17.9801476 L41.547187,17.9801476 Z M9.5251735,31.8542058 C9.76141907,31.6179602 10.0620953,31.1239922 10.4486789,31.5105759 C10.8782163,31.9186364 10.3198177,32.154882 10.0835721,32.3911275 C7.82850076,34.6461989 7.72111641,37.8462526 9.8902803,40.1872314 C12.7681809,43.3228545 18.6313665,43.2584238 21.4448365,40.0583702 C22.2180038,39.1778185 22.7549255,38.1898825 22.7549255,37.0086546 C22.7764024,31.9401133 22.7549255,26.8715719 22.7764024,21.8030305 C22.7764024,21.2661088 22.5616337,21.2661088 22.17505,21.39497 C21.1226834,21.7385999 20.4569004,22.4043829 20.199178,23.4997033 C20.1347474,23.8003795 20.0703168,24.1654862 19.6407794,24.036625 C19.2541957,23.9292407 19.36158,23.5856108 19.4260107,23.3278883 C19.8125943,21.888938 20.7146229,20.9439557 22.1965269,20.6432795 C22.6690181,20.5573721 22.7764024,20.3640802 22.7764024,19.913066 C22.7549255,16.927781 22.7549255,13.9210192 22.7764024,10.9357342 C22.7978793,9.23906147 22.2609575,7.73568056 21.2300678,6.42559147 C19.3401032,3.97722827 16.1615264,3.11815347 13.3480564,4.29938133 C10.5131095,5.48060919 8.94529801,8.2081717 9.3104048,11.2793641 C9.63255785,14.0498804 12.0594442,16.3908592 15.0232523,16.8418735 C15.3454053,16.8848273 16.0111883,16.7130123 15.9252808,17.3358415 C15.8393733,17.9586708 15.2165441,17.6794715 14.8729142,17.6150408 C11.6728605,17.0136885 9.54665037,15.2096314 8.66609869,12.0525315 C8.49428373,11.4082254 8.3009919,11.5585634 7.95736198,11.8377628 C6.02444366,13.3840974 5.22979946,15.3814463 5.55195252,17.8298095 C5.68081374,18.8392224 6.0673974,19.7197741 6.6472729,20.5573721 C6.81908786,20.7936176 7.09828717,21.0728169 6.71170351,21.3305394 C6.34659671,21.5882618 6.17478175,21.2016782 6.00296679,20.9869095 C5.87410557,20.8150945 5.76672122,20.6432795 5.65933687,20.4499877 C5.20832259,19.6982973 4.97207702,18.8606993 4.75730832,18.0231014 C1.68611588,19.9989734 0.912948557,24.9386536 3.81232603,27.9454154 C4.1989097,28.3534759 4.26334031,27.9454154 4.39220153,27.7306467 C5.53047565,25.9480665 7.11976404,24.9171767 9.20302045,24.5950237 C9.48221976,24.5520699 9.82584969,24.5091162 9.8902803,24.8956998 C9.97618778,25.2822835 9.65403472,25.3467141 9.35335854,25.3896679 C6.23921236,25.9480665 4.34924779,28.0313229 4.11300221,31.2098997 C3.94118725,33.5508785 5.44456817,36.1066261 7.57077832,36.9871778 C7.39896335,34.9253982 8.10770007,33.2502023 9.5251735,31.8542058 L9.5251735,31.8542058 Z M29.9067233,30.2004868 C29.6490009,30.3508249 29.2624172,30.4367323 29.4771859,30.8447929 C29.6704777,31.2528534 29.9926308,31.0380847 30.2503532,30.8877466 C32.440994,29.7494725 33.7081293,26.9574794 33.1497307,24.5520699 C33.0853001,24.2943475 33.0423464,23.9292407 32.6557627,24.0151482 C32.2477022,24.0795788 32.3121328,24.4232087 32.3980403,24.6809311 C32.4839477,25.0245611 32.5054246,25.368191 32.5054246,25.7332978 C32.4195171,27.687693 31.6463498,29.2125507 29.9067233,30.2004868 Z M14.1641775,30.329348 C14.3574693,30.5655936 14.572238,30.8877466 14.894391,30.6300242 C15.2165441,30.3937786 14.9802985,30.1360562 14.8084836,29.8998106 C13.1118108,27.4729243 13.1118108,24.8097924 14.8084836,22.4043829 C14.9802985,22.1681373 15.2165441,21.9318918 14.9158679,21.6741693 C14.572238,21.4164469 14.3574693,21.6956462 14.1641775,21.9533686 C13.240672,23.1775502 12.7681809,24.5520699 12.7896578,26.0124971 C12.7681809,27.6662161 13.2191952,29.0622127 14.1641775,30.329348 L14.1641775,30.329348 Z" id="path-1"></path>
        <filter x="-1.2%" y="-1.3%" width="102.4%" height="105.1%" filterUnits="objectBoundingBox" id="filter-2">
            <feOffset dx="0" dy="1" in="SourceAlpha" result="shadowOffsetOuter1"></feOffset>
            <feColorMatrix values="0 0 0 0 0   0 0 0 0 0   0 0 0 0 0  0 0 0 0.0805015297 0" type="matrix" in="shadowOffsetOuter1"></feColorMatrix>
        </filter>
        <filter x="-4.7%" y="-5.1%" width="109.5%" height="112.7%" filterUnits="objectBoundingBox" id="filter-3">
            <feGaussianBlur stdDeviation="1.5" in="SourceAlpha" result="shadowBlurInner1"></feGaussianBlur>
            <feOffset dx="0" dy="-1" in="shadowBlurInner1" result="shadowOffsetInner1"></feOffset>
            <feComposite in="shadowOffsetInner1" in2="SourceAlpha" operator="arithmetic" k2="-1" k3="1" result="shadowInnerInner1"></feComposite>
            <feColorMatrix values="0 0 0 0 1   0 0 0 0 1   0 0 0 0 1  0 0 0 0.5 0" type="matrix" in="shadowInnerInner1"></feColorMatrix>
        </filter>
    </defs>
    <g id="é¡µé¢-1" stroke="none" stroke-width="1" fill="none" fill-rule="evenodd">
        <g id="1" transform="translate(-1324.000000, -154.000000)" fill-rule="nonzero">
            <g id="main-goal" transform="translate(1280.000000, 125.000000)">
                <g id="vertex" transform="translate(44.000000, 29.000000)">
                    <rect id="1" fill="#000000" opacity="0" x="0" y="0" width="46" height="46"></rect>
                    <g id="2">
                        <use fill="black" fill-opacity="1" filter="url(#filter-2)" xlink:href="#path-1"></use>
                        <use fill="#FFFFFF" xlink:href="#path-1"></use>
                        <use fill="black" fill-opacity="1" filter="url(#filter-3)" xlink:href="#path-1"></use>
                    </g>
                </g>
            </g>
        </g>
    </g>
</svg>