<?xml version="1.0" encoding="UTF-8"?>
<svg width="18px" height="18px" viewBox="0 0 18 18" version="1.1" xmlns="http://www.w3.org/2000/svg" xmlns:xlink="http://www.w3.org/1999/xlink">
    <title>减少2</title>
    <defs>
        <linearGradient x1="50%" y1="0%" x2="50%" y2="100%" id="linearGradient-1">
            <stop stop-color="#CCE7F5" offset="0%"></stop>
            <stop stop-color="#A3CADE" offset="100%"></stop>
        </linearGradient>
    </defs>
    <g id="页面-1" stroke="none" stroke-width="1" fill="none" fill-rule="evenodd">
        <g id="1" transform="translate(-1090.000000, -420.000000)" fill-rule="nonzero">
            <g transform="translate(40.000000, 335.000000)" id="减少2">
                <g transform="translate(1050.000000, 85.000000)">
                    <rect id="矩形" fill="#000000" opacity="0" x="0" y="0" width="18" height="18"></rect>
                    <path d="M5.50605171,8.42233665 L12.7791045,8.42233665 L12.7791045,9.8768821 L5.50605171,9.8768821 L5.50605171,8.42233665 Z M9.14257812,15.6950639 C12.7576184,15.6950639 15.6886838,12.7644508 15.6886838,9.14871261 C15.6886838,5.53297447 12.7576184,2.60236131 9.14257812,2.60236131 C5.52753784,2.60236131 2.59647248,5.53297447 2.59647248,9.14871261 C2.59647248,12.7644508 5.52753784,15.6950639 9.14257812,15.6950639 Z M9.14257812,17.1496094 C4.72359872,17.1496094 1.14257812,13.5679481 1.14257812,9.14871261 C1.14257812,4.73127062 4.72359872,1.14960938 9.14257812,1.14960938 C13.5615575,1.14960938 17.1425781,4.73127062 17.1425781,9.15050614 C17.1425781,13.5679481 13.5615575,17.1496094 9.14257812,17.1496094 Z" id="形状" fill="url(#linearGradient-1)"></path>
                </g>
            </g>
        </g>
    </g>
</svg>