<?xml version="1.0" encoding="UTF-8"?>
<svg width="18px" height="18px" viewBox="0 0 18 18" version="1.1" xmlns="http://www.w3.org/2000/svg" xmlns:xlink="http://www.w3.org/1999/xlink">
    <title>放大3</title>
    <defs>
        <linearGradient x1="50%" y1="0%" x2="50%" y2="100%" id="linearGradient-1">
            <stop stop-color="#CCE7F5" offset="0%"></stop>
            <stop stop-color="#A3CADE" offset="100%"></stop>
        </linearGradient>
        <linearGradient x1="50%" y1="0%" x2="50%" y2="100%" id="linearGradient-2">
            <stop stop-color="#4B686F" offset="0%"></stop>
            <stop stop-color="#4B686F" offset="100%"></stop>
        </linearGradient>
    </defs>
    <g id="页面-1" stroke="none" stroke-width="1" fill="none" fill-rule="evenodd">
        <g id="1" transform="translate(-1122.000000, -420.000000)" fill-rule="nonzero">
            <g transform="translate(40.000000, 335.000000)" id="放大3">
                <g transform="translate(1082.000000, 85.000000)">
                    <rect id="矩形" fill="#4B686F" opacity="0" x="-1.13686838e-13" y="0" width="17.9999981" height="17.9999981"></rect>
                    <path d="M8.99952779,15.605266 C12.6206534,15.605266 15.5764106,12.6506235 15.6061031,9.00464938 C15.6078279,7.25170643 14.9124541,5.57000859 13.6732139,4.33014138 C12.4339736,3.09027417 10.7525714,2.39399367 8.99952779,2.39473439 C7.2476979,2.39424155 5.56747671,3.08989503 4.32874587,4.32855522 C3.09001503,5.5672154 2.39432185,7.24734074 2.39481473,8.9990707 C2.39407493,10.7511229 3.08978677,12.4316282 4.32874554,13.6705163 C5.56770431,14.9094044 7.24830549,15.6050765 9.00045763,15.6043362 L8.99952779,15.605266 Z M8.54387738,8.29382504 L5.52502209,8.29382504 C5.13985496,8.29382504 4.8276153,8.60604688 4.8276153,8.99119205 C4.8276153,9.37633721 5.13985496,9.68855906 5.52502209,9.68855906 L8.54294755,9.68855906 L8.54294755,12.706296 C8.54173902,12.9560784 8.67431046,13.1874056 8.8904415,13.312647 C9.10657253,13.4378883 9.37320631,13.4378883 9.58933735,13.312647 C9.80546839,13.1874056 9.93803982,12.9560784 9.9368313,12.706296 L9.9368313,9.68948884 L12.9547568,9.68948884 C13.3399239,9.68948884 13.6521635,9.37726699 13.6521635,8.99212183 C13.6521635,8.60697666 13.3399239,8.29475482 12.9547568,8.29475482 L9.9368313,8.29475482 L9.9368313,5.27793129 C9.93803982,5.02814893 9.80546839,4.79682172 9.58933735,4.67158039 C9.37320631,4.54633906 9.10657253,4.54633906 8.8904415,4.67158039 C8.67431046,4.79682172 8.54173902,5.02814893 8.54294755,5.27793129 L8.54294755,8.29382504 L8.54387738,8.29382504 Z M9.00138746,16.9981404 C6.87939755,16.9993698 4.84392471,16.1571971 3.3431879,14.6570722 C1.84245109,13.1569472 0.999516559,11.121886 1.00000086,9.00001679 C0.999014653,6.87814219 1.84147224,4.84287674 3.34186119,3.34239593 C4.84225014,1.84191512 6.87753204,0.999264891 8.99952779,1.00000048 C13.4215488,1.00000048 17.0000009,4.58009124 17.0000009,9.01021174 C16.9656451,13.4254721 13.38907,17.0000005 9.00045763,17.0000005 L9.00138746,16.9981404 Z" id="形状" fill="url(#linearGradient-2)"></path>
                </g>
            </g>
        </g>
    </g>
</svg>