<?xml version="1.0" encoding="UTF-8"?>
<svg width="18px" height="18px" viewBox="0 0 18 18" version="1.1" xmlns="http://www.w3.org/2000/svg" xmlns:xlink="http://www.w3.org/1999/xlink">
    <title>相机1</title>
    <defs>
        <linearGradient x1="50%" y1="0%" x2="50%" y2="100%" id="linearGradient-1">
            <stop stop-color="#CCE7F5" offset="0%"></stop>
            <stop stop-color="#A3CADE" offset="100%"></stop>
        </linearGradient>
        <linearGradient x1="50%" y1="0%" x2="50%" y2="100%" id="linearGradient-2">
            <stop stop-color="#CCE7F5" offset="0%"></stop>
            <stop stop-color="#A3CADE" offset="100%"></stop>
        </linearGradient>
        <linearGradient x1="50%" y1="0%" x2="50%" y2="100%" id="linearGradient-3">
            <stop stop-color="#CCE7F5" offset="0%"></stop>
            <stop stop-color="#A3CADE" offset="100%"></stop>
        </linearGradient>
    </defs>
    <g id="页面-1" stroke="none" stroke-width="1" fill="none" fill-rule="evenodd">
        <g id="1" transform="translate(-1058.000000, -420.000000)" fill-rule="nonzero">
            <g transform="translate(40.000000, 335.000000)" id="相机1">
                <g transform="translate(1018.000000, 85.000000)">
                    <rect id="矩形" fill="#000000" opacity="0" x="0" y="0" width="18" height="18"></rect>
                    <path d="M8.95616016,13.1832773 C7.09961133,13.1832773 5.59079297,11.6744414 5.59079297,9.81791016 C5.59079297,7.96137891 7.09961133,6.45254297 8.95616016,6.45254297 C10.812709,6.45254297 12.3215273,7.96136133 12.3215273,9.81791016 C12.3215273,11.674459 10.8126914,13.1832773 8.95616016,13.1832773 Z M8.95616016,7.57432617 C7.71946875,7.57432617 6.71257617,8.58121875 6.71257617,9.81791016 C6.71257617,11.0546016 7.71946875,12.0614766 8.95616016,12.0614766 C10.1928516,12.0614766 11.1997266,11.0546016 11.1997266,9.81791016 C11.1997266,8.58121875 10.1928516,7.57432617 8.95616016,7.57432617 Z" id="形状" fill="url(#linearGradient-1)"></path>
                    <path d="M15.1275059,15.9892383 L2.78481445,15.9892383 C1.85654883,15.9892383 1.10061914,15.2333262 1.10061914,14.3050605 L1.10061914,5.33074219 C1.10061914,4.40247656 1.85654883,3.64654687 2.78481445,3.64654687 L4.46900977,3.64654687 C4.77741797,3.64654687 5.0314043,3.89750977 5.0314043,4.20895898 C5.0314043,4.52039062 4.78044141,4.77135352 4.46900977,4.77135352 L2.78481445,4.77135352 C2.47640625,4.77135352 2.22240234,5.02231641 2.22240234,5.33376562 L2.22240234,14.3080664 C2.22240234,14.6164746 2.47338281,14.8704609 2.78481445,14.8704609 L15.1244824,14.8704609 C15.4328906,14.8704609 15.686877,14.619498 15.686877,14.3080664 L15.686877,5.33074219 C15.686877,5.02231641 15.4359141,4.76833008 15.1244824,4.76833008 L8.95614258,4.76833008 C8.64773438,4.76833008 8.39374805,4.51736719 8.39374805,4.20593555 C8.39374805,3.89448633 8.64471094,3.64352344 8.95616016,3.64352344 L15.1274883,3.64352344 C16.0557715,3.64352344 16.8116836,4.39945312 16.8116836,5.32771875 L16.8116836,14.3020195 C16.8086602,15.2333086 16.052748,15.9892383 15.1275059,15.9892383 Z" id="路径" fill="url(#linearGradient-2)"></path>
                    <path d="M13.4433105,6.17436914 C13.4433105,6.64001367 13.8212578,7.01495508 14.2838965,7.01495508 C14.749541,7.01495508 15.1244824,6.63699023 15.1244824,6.17436914 C15.1244824,5.71174805 14.7465176,5.3337832 14.2838965,5.3337832 C13.8212578,5.33075977 13.4433105,5.70872461 13.4433105,6.17436914 Z M8.39678906,2.52780469 C8.39678906,2.83621289 8.14580859,3.09019922 7.83437695,3.09019922 L5.59079297,3.09019922 C5.28238477,3.09019922 5.02838086,2.83923633 5.02838086,2.52780469 C5.02838086,2.21937891 5.27936133,1.96539258 5.59079297,1.96539258 L7.83439453,1.96539258 C8.14280273,1.96539258 8.39678906,2.21635547 8.39678906,2.52780469 L8.39678906,2.52780469 Z" id="形状" fill="url(#linearGradient-3)"></path>
                </g>
            </g>
        </g>
    </g>
</svg>