<?xml version="1.0" encoding="UTF-8"?>
<svg width="18px" height="18px" viewBox="0 0 18 18" version="1.1" xmlns="http://www.w3.org/2000/svg" xmlns:xlink="http://www.w3.org/1999/xlink">
    <title>缩放6</title>
    <defs>
        <linearGradient x1="50%" y1="0%" x2="50%" y2="100%" id="linearGradient-1">
            <stop stop-color="#CCE7F5" offset="0%"></stop>
            <stop stop-color="#A3CADE" offset="100%"></stop>
        </linearGradient>
    </defs>
    <g id="页面-1" stroke="none" stroke-width="1" fill="none" fill-rule="evenodd">
        <g id="1" transform="translate(-1218.000000, -420.000000)" fill-rule="nonzero">
            <g transform="translate(40.000000, 335.000000)" id="缩放6">
                <g transform="translate(1177.999998, 85.000000)">
                    <rect id="矩形" fill="#000000" opacity="0" x="0" y="0" width="18" height="18"></rect>
                    <path d="M10.6883155,10.688151 C10.7962418,10.5800671 10.942709,10.5192988 11.0954513,10.5192988 C11.248168,10.5192988 11.3946912,10.5800921 11.5025871,10.688151 L14.5877243,13.7721473 L14.5865834,11.9092323 L14.5958736,11.805737 C14.6488436,11.5126905 14.9169534,11.3086337 15.2135855,11.3355262 C15.5102177,11.3624186 15.7370924,11.6112963 15.7366042,11.9092323 L15.7366042,15.1726748 C15.7357885,15.1969595 15.7335067,15.2210813 15.7297581,15.245203 L15.7263354,15.2636203 C15.7227497,15.2870901 15.7173712,15.3100709 15.7101999,15.3327258 L15.7009098,15.3591293 L15.6917826,15.3821101 C15.66329,15.4515686 15.6210452,15.5145477 15.5675883,15.5672608 L15.6021411,15.5281444 L15.5998593,15.5304262 L15.5848647,15.5477026 L15.5675883,15.5672608 L15.5582982,15.5765509 L15.549171,15.585841 C15.4740647,15.653183 15.3830185,15.7002487 15.2846469,15.7225852 L15.2271133,15.7307344 L15.1615934,15.7364389 L11.9084189,15.7364389 L11.8049237,15.7261708 C11.5322503,15.6762975 11.3338979,15.4388288 11.3334089,15.1615919 L11.3425361,15.0580966 C11.3925724,14.7849342 11.63053,14.5865819 11.908256,14.5867448 L13.771008,14.5844631 L10.6894564,11.5024225 L10.6227957,11.4219081 C10.4645375,11.1935665 10.4922449,10.8848735 10.6883155,10.688151 L10.6883155,10.688151 Z M8.04698559,10.688151 C8.24354513,10.8845475 8.2715785,11.1932405 8.11364633,11.4217451 L8.04698559,11.5022595 L4.96413012,14.5839741 L6.82704516,14.5862559 C7.10477108,14.5860929 7.34289172,14.7846083 7.39276503,15.0576076 L7.40205516,15.1611029 C7.4015662,15.4383399 7.20337682,15.6758086 6.93070343,15.7256819 L6.82720815,15.7359499 L3.57517456,15.7359499 L3.50623203,15.7291046 L3.45098022,15.7211183 C3.3441356,15.69655 3.24619443,15.6428404 3.16803879,15.5659569 L3.15076242,15.5475396 L3.13478992,15.5291223 L3.15076242,15.5463987 L3.11865443,15.5095642 L3.13250813,15.5268405 L3.12566277,15.5177134 C3.10243374,15.4891049 3.08202033,15.458321 3.0647065,15.42579 L3.04628923,15.3821101 C3.03047191,15.3436718 3.01893904,15.3036074 3.01189946,15.2626424 L3.00733589,15.2442251 C3.00391321,15.2202663 3.00195739,15.1959816 3.00146765,15.1716969 L3.00146765,11.9082544 C3.00097948,11.6103184 3.22785418,11.3614407 3.52448632,11.3345483 C3.82111846,11.3076558 4.08922828,11.5117126 4.14219831,11.8047591 L4.15148843,11.9082544 L4.15034754,13.7721473 L7.2354848,10.688151 C7.45991473,10.463721 7.82402253,10.463721 8.04845245,10.688151 L8.04698559,10.688151 Z M6.82932695,3 L6.93282223,3.00929013 C7.20598457,3.05916344 7.40433694,3.29728408 7.40417396,3.57501 L7.39390592,3.67850528 C7.34386962,3.95166762 7.10591197,4.15002 6.82818605,4.14985701 L4.96527101,4.1521388 L8.04812648,7.23385338 L8.11478722,7.31436782 C8.28200952,7.55917083 8.23572187,7.89084468 8.00803225,8.08055886 C7.78017965,8.27011006 7.44557207,8.25560442 7.23515883,8.04682103 L4.14888068,4.96396556 L4.15002157,6.8268806 L4.14073144,6.93037588 C4.08776142,7.22342236 3.8196516,7.4274792 3.52301946,7.40058672 C3.22638731,7.37369425 2.99951262,7.12481662 3.00000079,6.8268806 L3.00000079,3.56343809 C3.00000079,3.53817546 3.00228336,3.51405372 3.00570604,3.48993199 L3.00912872,3.47151472 C3.01304035,3.44804492 3.01874481,3.42506408 3.0264051,3.40257219 C3.05379702,3.31405675 3.10235599,3.23355404 3.16787581,3.16803722 L3.13332305,3.20715355 L3.1264777,3.21644367 L3.15174032,3.18645449 L3.13560484,3.20373087 L3.15059943,3.18775837 L3.18743397,3.14978293 C3.23698132,3.10528811 3.29369999,3.06959446 3.35530821,3.04400587 L3.40126989,3.02672949 C3.45749961,3.00929013 3.51601111,3.00032597 3.57484859,3.00032597 L3.5161741,3.00260776 L3.52416035,3.00260776 L3.54828208,3.00032597 L6.82932695,3.00032597 L6.82932695,3 Z M15.1889749,3 L15.2119557,3.00228179 L15.2188011,3.00228179 C15.2584063,3.00700834 15.2976856,3.01515758 15.335987,3.02640352 L15.3819487,3.0436799 L15.4244877,3.06323806 L15.4740351,3.09192337 C15.5080989,3.11360033 15.5397179,3.13902594 15.5682402,3.16787423 L15.5866575,3.1874324 L15.5993703,3.2034049 L15.602793,3.20568668 L15.6107792,3.2161177 L15.6487547,3.26778385 C15.6870561,3.33020699 15.7136226,3.3993125 15.7269873,3.47135173 L15.73041,3.489769 C15.7338327,3.51389074 15.7361145,3.53801247 15.7361145,3.56213421 L15.7361145,6.82785851 C15.7335067,7.12334976 15.5074469,7.36880471 15.2132596,7.3955342 C14.9189092,7.42226369 14.6522663,7.22162953 14.5966885,6.93135379 L14.5873984,6.82785851 L14.5873984,4.96298765 L11.503565,8.04698402 C11.2933147,8.25804919 10.9565883,8.27369572 10.7279208,8.08284065 C10.4990903,7.89198557 10.4539435,7.55802994 10.6239366,7.31322693 L10.6894564,7.23401636 L13.7734528,4.15230178 L11.9107007,4.15002 C11.6326488,4.15067194 11.3938763,3.95215658 11.34384,3.67866826 L11.3335719,3.57517298 C11.3334089,3.29744707 11.5317613,3.05932643 11.8050867,3.00945311 L11.9085819,3.00016298 L15.1889749,3.00016298 L15.1889749,3 Z" id="形状" fill="url(#linearGradient-1)"></path>
                </g>
            </g>
        </g>
    </g>
</svg>